<svg id="canvas" height="auto" xmlns="http://www.w3.org/2000/svg" version="1.1" xmlns:xlink="http://www.w3.org/1999/xlink" xmlns:svgjs="http://svgjs.dev/svgjs" viewBox="0 0 540 420" width="auto" style="width: auto; height: auto;"><rect width="540" height="420" fill="transparent"/><mask id="mask" mask-type="alpha" maskUnits="userSpaceOnUse"><rect transform="translate(0, 0)" width="540" height="420" fill="white"/></mask><svg><path transform="translate(0, 300) translate(30,30) rotate(180) translate(-30,-30)" fill="#0096c7" d="M28.074 29.726l-1.358 28.927 29.47-9.778-28.112-19.149z"/><path transform="translate(0, 300) translate(30,30) rotate(180) translate(-30,-30)" fill="#0077b6" d="M51.84 42.628L38.94 32.306l6.518-19.42 11.951 1.766 1.902 17.654-7.47 10.322z"/><path transform="translate(0, 300) translate(30,30) rotate(180) translate(-30,-30)" fill="#00b4d8" d="M44.513 36.76l7.327 5.863L59.31 32.3l-.789-7.323A6560.396 6560.396 0 0044.513 36.76z"/><path transform="translate(0, 300) translate(30,30) rotate(180) translate(-30,-30)" fill="#0077b6" d="M43.89 36.26l7.952 6.363 6.69-9.244c-4.66.923-10.846 2.144-14.642 2.882z"/><path transform="translate(0, 300) translate(30,30) rotate(180) translate(-30,-30)" fill="#0077b6" d="M38.531 22.121l-2.309 8.284-5.975-4.21 8.284-4.074z"/><circle cx="15.987" cy="9.495" r="8.148" transform="translate(0, 300) translate(30,30) rotate(180) translate(-30,-30)" fill="#48cae4"/><path transform="translate(0, 300) translate(30,30) rotate(180) translate(-30,-30)" fill="#90e0ef" d="M28.481 24.973L18.024 11.121l12.902-5.84 9.642 12.223-12.087 7.469z"/><circle cx="41.451" cy="9.495" r="2.377" transform="translate(0, 300) translate(30,30) rotate(180) translate(-30,-30)" fill="#48cae4"/><path transform="translate(0, 300) translate(30,30) rotate(180) translate(-30,-30)" fill="#0096c7" d="M48.581 2.429c-.588 1.947-1.82 5.975-2.037 6.519l11 .95-8.963-7.469z"/><path transform="translate(0, 300) translate(30,30) rotate(180) translate(-30,-30)" fill="#0077b6" d="M21.099 48.06V23.333L5.04 19.781l2.131 18.758 13.927 9.521z"/><circle cx="6.88" cy="39.743" r="6.19" transform="translate(0, 300) translate(30,30) rotate(180) translate(-30,-30)" fill="#48cae4"/><path transform="translate(0, 300) translate(30,30) rotate(180) translate(-30,-30)" fill="#48cae4" d="M20.457 52.613l-7.494-5.301-4.57 8.042 12.064-2.741z"/></svg><svg><path transform="translate(360, 0) translate(30,30) rotate(180) translate(-30,-30)" fill="#0077b6" d="M20.888 2.086L2.25 7.458.458 20.061l15.455 9.619 18.308-18.374-13.333-9.22z"/><path transform="translate(360, 0) translate(30,30) rotate(180) translate(-30,-30)" fill="#023e8a" d="M44.541 5.436L34.308 17.297 57.333 26.6l2.21-14.536L44.54 5.436z"/><path transform="translate(360, 0) translate(30,30) rotate(180) translate(-30,-30)" fill="#90e0ef" d="M35.673 7.627l-4.34-3.558L41.65 1.863l-5.977 5.764z"/><circle cx="27.404" cy="26.612" r="9.208" transform="translate(360, 0) translate(30,30) rotate(180) translate(-30,-30)" fill="#0096c7"/><path transform="translate(360, 0) translate(30,30) rotate(180) translate(-30,-30)" fill="#0096c7" d="M36.535 27.946c-.646 4.453-4.48 7.874-9.112 7.874a9.201 9.201 0 01-7.776-4.274l16.889-3.6z"/><path transform="translate(360, 0) translate(30,30) rotate(180) translate(-30,-30)" fill="#023e8a" d="M31.253 34.988a9.21 9.21 0 005.36-8.367 9.17 9.17 0 00-2.139-5.9 8.264 8.264 0 00-3.22 14.267z"/><circle cx="51.018" cy="49.573" r="2.391" transform="translate(360, 0) translate(30,30) rotate(180) translate(-30,-30)" fill="#0077b6"/><path transform="translate(360, 0) translate(30,30) rotate(180) translate(-30,-30)" fill="#ade8f4" d="M40.278 48.156l-10.374-3.431 9.672-8.502.702 11.933z"/><path transform="translate(360, 0) translate(30,30) rotate(180) translate(-30,-30)" fill="#023e8a" d="M43.01 48.1s-1.605-21.409-1.605-21.944l17.93 7.895L43.01 48.1z"/><path transform="translate(360, 0) translate(30,30) rotate(180) translate(-30,-30)" fill="#0077b6" d="M35.918 49.038L6.346 41.009l-4.55 17.128 38.27-1.07-4.148-8.03z"/><path transform="translate(360, 0) translate(30,30) rotate(180) translate(-30,-30)" fill="#0096c7" d="M39.91 23.747l-1.316 9.769 11.91-5.531-10.594-4.238zM.829 35.042l.706-6.41 12.644 7.407-13.35-.997z"/></svg><svg><path transform="translate(360, 120) translate(30,30) rotate(0) translate(-30,-30)" fill="#90e0ef" d="M.63 24.138L3.629 3.556 20.613.56l5.195 12.988-10.19 16.186L.63 24.138z"/><path transform="translate(360, 120) translate(30,30) rotate(0) translate(-30,-30)" fill="#ade8f4" d="M26.264 34.535l-4.04-22.777 22.424-3.2-18.384 25.977z"/><path transform="translate(360, 120) translate(30,30) rotate(0) translate(-30,-30)" fill="#0077b6" d="M21.243 28.207L16.5 34.245l7.259 7.259-2.516-13.296z"/><circle cx="53.369" cy="11.559" r="6" transform="translate(360, 120) translate(30,30) rotate(0) translate(-30,-30)" fill="#023e8a"/><circle cx="34.672" cy="4.559" r="1.972" transform="translate(360, 120) translate(30,30) rotate(0) translate(-30,-30)" fill="#0077b6"/><path transform="translate(360, 120) translate(30,30) rotate(0) translate(-30,-30)" fill="#023e8a" d="M32.998 52.18l-4.811-10.195 10.08-14.434L51.44 41.985 32.998 52.18z"/><path transform="translate(360, 120) translate(30,30) rotate(0) translate(-30,-30)" fill="#0096c7" d="M59.37 42.004L41.74 22.669l2.943-3.969 14.392 13.621.293 9.683z"/><path transform="translate(360, 120) translate(30,30) rotate(0) translate(-30,-30)" fill="#00b4d8" d="M59.152 34.65L42.468 21.696l2.221-2.996 14.392 13.621.07 2.33z"/><path transform="translate(360, 120) translate(30,30) rotate(0) translate(-30,-30)" fill="#00b4d8" d="M50.615 32.403l8.754 9.6-.293-9.682-3.232-3.059a10.515 10.515 0 00-5.229 3.14zM4.007 42.035L3.82 57.822l19.053 1.62-8.34-12.657-10.525-4.75z"/><circle cx="10.667" cy="41.559" r="4.958" transform="translate(360, 120) translate(30,30) rotate(0) translate(-30,-30)" fill="#00b4d8"/><circle cx="3.12" cy="32.02" r="2.023" transform="translate(360, 120) translate(30,30) rotate(0) translate(-30,-30)" fill="#03045e"/><path transform="translate(360, 120) translate(30,30) rotate(0) translate(-30,-30)" fill="#caf0f8" d="M51.659 48.562l-10.013 5.136 11.963 2.146-1.95-7.282z"/></svg><svg><path transform="translate(360, 180) translate(30,30) rotate(90) translate(-30,-30)" fill="#90e0ef" d="M59 12.111L48.941 21l-7.265-2.222L40 5.444 52.294 1 59 12.111z"/><circle transform="translate(360, 180) translate(30,30) rotate(90) translate(-30,-30)" fill="#caf0f8" cx="6.5" cy="4.5" r="3.5"/><circle transform="translate(360, 180) translate(30,30) rotate(90) translate(-30,-30)" fill="#0096c7" cx="28.5" cy="51.5" r="2.5"/><circle transform="translate(360, 180) translate(30,30) rotate(90) translate(-30,-30)" fill="#0077b6" cx="49" cy="50" r="9"/><path transform="translate(360, 180) translate(30,30) rotate(90) translate(-30,-30)" fill="#0077b6" d="M1 59l7.576-41L26 44.574 1 59z"/><path transform="translate(360, 180) translate(30,30) rotate(90) translate(-30,-30)" fill="#00b4d8" d="M20.427 35.99a15.92 15.92 0 01-11.562 4.955c-1.532 0-3.013-.216-4.415-.619l4.138-22.394 11.84 18.057z"/><path transform="translate(360, 180) translate(30,30) rotate(90) translate(-30,-30)" fill="#48cae4" d="M6.101 31.387l2.486-13.455 6.96 10.615a7.99 7.99 0 01-6.535 3.385 7.98 7.98 0 01-2.91-.545z"/><path transform="translate(360, 180) translate(30,30) rotate(90) translate(-30,-30)" fill="#0096c7" d="M35 20.5l8.25-7.5L46 23l-11-2.5z"/><path transform="translate(360, 180) translate(30,30) rotate(90) translate(-30,-30)" fill="#023e8a" d="M32.13 42L21.5 21.5 53 28.865 32.13 42z"/><path transform="translate(360, 180) translate(30,30) rotate(90) translate(-30,-30)" fill="#90e0ef" d="M13.5 15.5l3.5-13L31 2l-2.5 16.5-15-3z"/></svg><svg><path transform="translate(420, 180) translate(30,30) rotate(270) translate(-30,-30)" fill="#0077b6" d="M28.074 29.726l-1.358 28.927 29.47-9.778-28.112-19.149z"/><path transform="translate(420, 180) translate(30,30) rotate(270) translate(-30,-30)" fill="#03045e" d="M51.84 42.628L38.94 32.306l6.518-19.42 11.951 1.766 1.902 17.654-7.47 10.322z"/><path transform="translate(420, 180) translate(30,30) rotate(270) translate(-30,-30)" fill="#00b4d8" d="M44.513 36.76l7.327 5.863L59.31 32.3l-.789-7.323A6560.396 6560.396 0 0044.513 36.76z"/><path transform="translate(420, 180) translate(30,30) rotate(270) translate(-30,-30)" fill="#ade8f4" d="M43.89 36.26l7.952 6.363 6.69-9.244c-4.66.923-10.846 2.144-14.642 2.882z"/><path transform="translate(420, 180) translate(30,30) rotate(270) translate(-30,-30)" fill="#0096c7" d="M38.531 22.121l-2.309 8.284-5.975-4.21 8.284-4.074z"/><circle cx="15.987" cy="9.495" r="8.148" transform="translate(420, 180) translate(30,30) rotate(270) translate(-30,-30)" fill="#ade8f4"/><path transform="translate(420, 180) translate(30,30) rotate(270) translate(-30,-30)" fill="#caf0f8" d="M28.481 24.973L18.024 11.121l12.902-5.84 9.642 12.223-12.087 7.469z"/><circle cx="41.451" cy="9.495" r="2.377" transform="translate(420, 180) translate(30,30) rotate(270) translate(-30,-30)" fill="#48cae4"/><path transform="translate(420, 180) translate(30,30) rotate(270) translate(-30,-30)" fill="#90e0ef" d="M48.581 2.429c-.588 1.947-1.82 5.975-2.037 6.519l11 .95-8.963-7.469z"/><path transform="translate(420, 180) translate(30,30) rotate(270) translate(-30,-30)" fill="#03045e" d="M21.099 48.06V23.333L5.04 19.781l2.131 18.758 13.927 9.521z"/><circle cx="6.88" cy="39.743" r="6.19" transform="translate(420, 180) translate(30,30) rotate(270) translate(-30,-30)" fill="#0077b6"/><path transform="translate(420, 180) translate(30,30) rotate(270) translate(-30,-30)" fill="#00b4d8" d="M20.457 52.613l-7.494-5.301-4.57 8.042 12.064-2.741z"/></svg><svg><path transform="translate(480, 60) translate(30,30) rotate(0) translate(-30,-30)" fill="#ade8f4" d="M1.137 24.082l9.277-21.814 17.677 7.898-9.778 22.065-17.176-8.15z"/><path transform="translate(480, 60) translate(30,30) rotate(0) translate(-30,-30)" fill="#90e0ef" d="M36.837.518l-6.4 12.232 16.321-8.723L36.837.518z"/><circle cx="27.175" cy="24.882" r="8.564" transform="translate(480, 60) translate(30,30) rotate(0) translate(-30,-30)" fill="#0096c7"/><circle cx="38.743" cy="13.715" r="2.045" transform="translate(480, 60) translate(30,30) rotate(0) translate(-30,-30)" fill="#ade8f4"/><circle cx="3.578" cy="3.595" r="1.436" transform="translate(480, 60) translate(30,30) rotate(0) translate(-30,-30)" fill="#caf0f8"/><path transform="translate(480, 60) translate(30,30) rotate(0) translate(-30,-30)" fill="#90e0ef" d="M5.023 39v-8.65l8.65 3.51L5.024 39z"/><path transform="translate(480, 60) translate(30,30) rotate(0) translate(-30,-30)" fill="#0077b6" d="M15.632 38.262l-9.528 5.642-3.636 8.65 6.645 6.394 20.56-4.513-5.265-14.92-8.776-1.253z"/><path transform="translate(480, 60) translate(30,30) rotate(0) translate(-30,-30)" fill="#0077b6" d="M38.246 30.476v-9.78l15.17-4.387-.878 18.93-14.292-4.763z"/><path transform="translate(480, 60) translate(30,30) rotate(0) translate(-30,-30)" fill="#ade8f4" d="M53.138 22.301l-.6 12.939-7.426-2.476 3.799-10.161 4.227-.302z"/><path transform="translate(480, 60) translate(30,30) rotate(0) translate(-30,-30)" fill="#023e8a" d="M38.246 26.294v4.181l11.08 3.694a8.203 8.203 0 00-11.08-7.875z"/><path transform="translate(480, 60) translate(30,30) rotate(0) translate(-30,-30)" fill="#0096c7" d="M58.664 11.575l-11.513 3.226 2.868-8.036 8.645 4.81z"/><path transform="translate(480, 60) translate(30,30) rotate(0) translate(-30,-30)" fill="#023e8a" d="M28.593 44.893L16.35 52.675l30.087 3.455-17.844-11.237z"/><path transform="translate(480, 60) translate(30,30) rotate(0) translate(-30,-30)" fill="#023e8a" d="M49.956 53.786L33.857 43.688l4.227-9.358 11.872 19.457z"/><circle cx="29.673" cy="37.696" r="1.573" transform="translate(480, 60) translate(30,30) rotate(0) translate(-30,-30)" fill="#03045e"/><circle cx="56.434" cy="46.314" r="2.291" transform="translate(480, 60) translate(30,30) rotate(0) translate(-30,-30)" fill="#0077b6"/></svg><svg><path transform="translate(480, 300) translate(30,30) rotate(270) translate(-30,-30)" fill="#00b4d8" d="M1.137 24.082l9.277-21.814 17.677 7.898-9.778 22.065-17.176-8.15z"/><path transform="translate(480, 300) translate(30,30) rotate(270) translate(-30,-30)" fill="#023e8a" d="M36.837.518l-6.4 12.232 16.321-8.723L36.837.518z"/><circle cx="27.175" cy="24.882" r="8.564" transform="translate(480, 300) translate(30,30) rotate(270) translate(-30,-30)" fill="#03045e"/><circle cx="38.743" cy="13.715" r="2.045" transform="translate(480, 300) translate(30,30) rotate(270) translate(-30,-30)" fill="#0077b6"/><circle cx="3.578" cy="3.595" r="1.436" transform="translate(480, 300) translate(30,30) rotate(270) translate(-30,-30)" fill="#caf0f8"/><path transform="translate(480, 300) translate(30,30) rotate(270) translate(-30,-30)" fill="#0077b6" d="M5.023 39v-8.65l8.65 3.51L5.024 39z"/><path transform="translate(480, 300) translate(30,30) rotate(270) translate(-30,-30)" fill="#90e0ef" d="M15.632 38.262l-9.528 5.642-3.636 8.65 6.645 6.394 20.56-4.513-5.265-14.92-8.776-1.253z"/><path transform="translate(480, 300) translate(30,30) rotate(270) translate(-30,-30)" fill="#ade8f4" d="M38.246 30.476v-9.78l15.17-4.387-.878 18.93-14.292-4.763z"/><path transform="translate(480, 300) translate(30,30) rotate(270) translate(-30,-30)" fill="#ade8f4" d="M53.138 22.301l-.6 12.939-7.426-2.476 3.799-10.161 4.227-.302z"/><path transform="translate(480, 300) translate(30,30) rotate(270) translate(-30,-30)" fill="#48cae4" d="M38.246 26.294v4.181l11.08 3.694a8.203 8.203 0 00-11.08-7.875z"/><path transform="translate(480, 300) translate(30,30) rotate(270) translate(-30,-30)" fill="#0077b6" d="M58.664 11.575l-11.513 3.226 2.868-8.036 8.645 4.81z"/><path transform="translate(480, 300) translate(30,30) rotate(270) translate(-30,-30)" fill="#00b4d8" d="M28.593 44.893L16.35 52.675l30.087 3.455-17.844-11.237z"/><path transform="translate(480, 300) translate(30,30) rotate(270) translate(-30,-30)" fill="#0096c7" d="M49.956 53.786L33.857 43.688l4.227-9.358 11.872 19.457z"/><circle cx="29.673" cy="37.696" r="1.573" transform="translate(480, 300) translate(30,30) rotate(270) translate(-30,-30)" fill="#023e8a"/><circle cx="56.434" cy="46.314" r="2.291" transform="translate(480, 300) translate(30,30) rotate(270) translate(-30,-30)" fill="#00b4d8"/></svg></svg>