<svg id="canvas" height="auto" xmlns="http://www.w3.org/2000/svg" version="1.1" xmlns:xlink="http://www.w3.org/1999/xlink" xmlns:svgjs="http://svgjs.dev/svgjs" viewBox="0 0 1920 1080" width="auto" style="width: auto; height: auto;"><rect width="1920" height="1080" fill="#000000"/><defs><linearGradient id="SvgjsLinearGradient1188"><stop stop-color="#ffc480" offset="0"/><stop stop-color="#bbff80" offset="1"/></linearGradient><linearGradient id="SvgjsLinearGradient1189"><stop stop-color="#80a6ff" offset="0"/><stop stop-color="#d880ff" offset="1"/></linearGradient><linearGradient id="SvgjsLinearGradient1190"><stop stop-color="#8092ff" offset="0"/><stop stop-color="#ec80ff" offset="1"/></linearGradient><linearGradient id="SvgjsLinearGradient1191"><stop stop-color="#ed80ff" offset="0"/><stop stop-color="#ff8091" offset="1"/></linearGradient><linearGradient id="SvgjsLinearGradient1192"><stop stop-color="#80f6ff" offset="0"/><stop stop-color="#8880ff" offset="1"/></linearGradient><linearGradient id="SvgjsLinearGradient1193"><stop stop-color="#ff80cc" offset="0"/><stop stop-color="#ffb380" offset="1"/></linearGradient><linearGradient id="SvgjsLinearGradient1194"><stop stop-color="#80e8ff" offset="0"/><stop stop-color="#9780ff" offset="1"/></linearGradient><linearGradient id="SvgjsLinearGradient1195"><stop stop-color="#80a3ff" offset="0"/><stop stop-color="#dc80ff" offset="1"/></linearGradient><linearGradient id="SvgjsLinearGradient1196"><stop stop-color="#80beff" offset="0"/><stop stop-color="#c180ff" offset="1"/></linearGradient><linearGradient id="SvgjsLinearGradient1197"><stop stop-color="#8480ff" offset="0"/><stop stop-color="#ff80fa" offset="1"/></linearGradient><linearGradient id="SvgjsLinearGradient1198"><stop stop-color="#ffc480" offset="0"/><stop stop-color="#baff80" offset="1"/></linearGradient><linearGradient id="SvgjsLinearGradient1199"><stop stop-color="#ffbb80" offset="0"/><stop stop-color="#c3ff80" offset="1"/></linearGradient><linearGradient id="SvgjsLinearGradient1200"><stop stop-color="#95ff80" offset="0"/><stop stop-color="#80ffe9" offset="1"/></linearGradient><linearGradient id="SvgjsLinearGradient1201"><stop stop-color="#cf80ff" offset="0"/><stop stop-color="#ff80af" offset="1"/></linearGradient><linearGradient id="SvgjsLinearGradient1202"><stop stop-color="#ef80ff" offset="0"/><stop stop-color="#ff808f" offset="1"/></linearGradient></defs><style>g:nth-of-type(6n){fill-opacity:1;}g:nth-of-type(6n + 1){fill-opacity:.25;}g:nth-of-type(6n + 2){fill-opacity:1;}g:nth-of-type(6n + 3){fill-opacity:.35;}g:nth-of-type(6n + 4){fill-opacity:.5;}g:nth-of-type(6n + 5){fill-opacity:.25;}</style><g transform="matrix(1,0,0,1,175.4410722814077,70.03377942202917)"><path d="M74.064662916911,1.7526144591362964C76.6245962944063,32.31676343765132,59.14113808937603,77.15548628377246,41.66666666666667,87.76080030160966C24.19219524395732,98.36611431944687,-10.079593152497228,82.38220290849725,-30.782165619345108,65.38449856615952C-51.48473808619299,48.386794223821795,-79.70731074782766,9.035669857477373,-82.5487681344206,-14.225425752416715C-85.39022552101353,-37.4865213623108,-65.97354902825526,-60.61563045702773,-47.83090993890269,-74.18207509320501C-29.68827084955012,-87.74851972938231,5.99113759239258,-108.27987516153733,26.30706640169486,-95.62409356948045C46.622995210997146,-82.96831197742357,71.5047295394157,-28.811534519378725,74.064662916911,1.7526144591362964C76.6245962944063,32.31676343765132,59.14113808937603,77.15548628377246,41.66666666666667,87.76080030160966" fill="url(#SvgjsLinearGradient1188)"/></g><g transform="matrix(1,0,0,1,456.2367645968209,323.23920882621314)"><path d="M88.28285100237605,-15.490814285527906C87.87523583289962,5.795215549153893,76.47123500790532,58.52530454814576,54.81298206306488,72.16878364870321C33.15472911822444,85.81226274926067,-19.77040323794336,83.27230918226377,-41.66666666666664,66.37006031781681C-63.56293009538993,49.46781145336985,-73.4288027290165,-8.068377344750864,-76.56459850927482,-29.244709537978515C-79.70039428953314,-50.42104173120617,-82.78531994641628,-56.304151871314254,-60.48144134821658,-60.6879328415491C-38.177562750016875,-65.07171381178395,32.46462435482465,-63.08024845205779,57.258673079923426,-55.547395359387586C82.0527218050222,-48.014542266717385,88.69046617185248,-36.7768441202097,88.28285100237605,-15.490814285527906C87.87523583289962,5.795215549153893,76.47123500790532,58.52530454814576,54.81298206306488,72.16878364870321" fill="url(#SvgjsLinearGradient1189)"/></g><g transform="matrix(1,0,0,1,380.70305324268634,507.23712356659775)"><path d="M65.72715042003836,-11.309293451883736C65.53949028586462,12.657912851336675,71.43322643347021,69.96783244058551,56.13271513611107,83.4941889876343C40.83220383875193,97.0205455346831,-2.100777996826011,85.81612134168302,-26.075917364116478,69.84884583040898C-50.051056731406945,53.881570319134944,-82.90199104421583,9.976813554704894,-87.71812106763174,-12.3094640800099C-92.53425109104765,-34.595741714724696,-79.1354970060761,-55.868889185933384,-54.97269750461189,-63.86881997787977C-30.80989800314768,-71.86875076982615,37.14203462037847,-69.06896991935419,57.258675941153506,-60.30904883168819C77.37531726192854,-51.54912774402218,65.9148105542121,-35.27649975510415,65.72715042003836,-11.309293451883736C65.53949028586462,12.657912851336675,71.43322643347021,69.96783244058551,56.13271513611107,83.4941889876343" fill="url(#SvgjsLinearGradient1190)"/></g><g transform="matrix(1,0,0,1,407.6029982956112,744.4074883800429)"><path d="M94.23365755872626,10.7751296924638C96.2189418026145,35.897781032700166,65.67190237341451,77.03417584669063,45.620646040468934,85.72180062149197C25.56938970752336,94.4094253962933,-5.727073082594426,77.18784683675358,-26.073880438947178,62.90087834127182C-46.420687795299926,48.61390984579006,-76.14063089894547,18.161201361469075,-76.46019809764756,-0.000010351398579189208C-76.77976529634965,-18.161222064266234,-46.35280674362424,-35.23070909117949,-27.991283631159725,-46.0663919359341C-9.629760518695203,-56.90207478068871,13.338117045491895,-74.48769435799255,33.70894057713956,-65.01410741992623C54.07976410878722,-55.540520481859915,92.24837331483803,-14.34752164777257,94.23365755872626,10.7751296924638C96.2189418026145,35.897781032700166,65.67190237341451,77.03417584669063,45.620646040468934,85.72180062149197" fill="url(#SvgjsLinearGradient1191)"/></g><g transform="matrix(1,0,0,1,208.20581277415056,919.5844705079519)"><path d="M96.3326950411703,24.316298078984453C93.81912109674477,51.39635757957774,61.53102303128915,84.1412409001003,37.43490304967521,94.19192487151405C13.338783068061272,104.2426088429278,-23.926706642620392,98.83926458692687,-48.24402484851338,84.62040190746697C-72.56134305440636,70.40153922800707,-109.00401918256735,32.69928664494907,-108.4690061856827,8.878748794754625C-107.93399318879806,-14.94178905543982,-71.864839017524,-45.44162837256631,-45.03394686720548,-58.3028251936997C-18.203054716886957,-71.16402201483308,28.955239731499145,-82.05828601082635,52.51634671622844,-68.28843213204566C76.07745370095773,-54.51857825326496,98.84626898559583,-2.76376142160883,96.3326950411703,24.316298078984453C93.81912109674477,51.39635757957774,61.53102303128915,84.1412409001003,37.43490304967521,94.19192487151405" fill="url(#SvgjsLinearGradient1192)"/></g><g transform="matrix(1,0,0,1,827.6955884462468,100.01567500838047)"><path d="M78.20486759610802,10.574076520017954C83.98614284017654,33.01859481738791,77.43515001868829,60.78021340720644,53.47311892491554,72.16878364870321C29.511087831142785,83.55735389019999,-42.967351873676336,92.87762683063173,-65.56731896652852,78.9054979689986C-88.1672860593807,64.93336910736548,-86.11012568217451,14.25141288133743,-82.12668363219754,-11.663989521095559C-78.14324158222057,-37.57939192352855,-58.48535851545036,-68.11452700986248,-41.6666666666667,-76.58691644559931C-24.847974817883042,-85.05930588133614,-1.1931215832913757,-77.02515829645273,18.78546746050441,-62.498326135516514C38.7640565043002,-47.971493974580305,72.42359235203949,-11.870441777352,78.20486759610802,10.574076520017954C83.98614284017654,33.01859481738791,77.43515001868829,60.78021340720644,53.47311892491554,72.16878364870321" fill="url(#SvgjsLinearGradient1193)"/></g><g transform="matrix(1,0,0,1,1069.7573621426159,346.99108810463264)"><path d="M69.37068712493624,-5.375401627200098C69.51449528002884,21.286323959827747,49.93477188030235,58.44674100821699,31.441291567225754,72.45989461319519C12.947811254149162,86.47304821817339,-24.173460382893996,93.2998270658942,-41.590194753523306,78.70352000266911C-59.00692912415262,64.10721293944401,-70.7998396975568,10.027436175740007,-73.0591146565501,-15.117947766155378C-75.31838961554338,-40.263331708050764,-72.41877072301976,-60.10336512490045,-55.14584450748305,-72.1687836487032C-37.872918291946334,-84.23420217250595,9.825687364600274,-98.64268924588907,30.578442636670154,-87.51045890897188C51.33119790874004,-76.3782285720547,69.22687896984364,-32.037127214227944,69.37068712493624,-5.375401627200098C69.51449528002884,21.286323959827747,49.93477188030235,58.44674100821699,31.441291567225754,72.45989461319519" fill="url(#SvgjsLinearGradient1194)"/></g><g transform="matrix(1,0,0,1,1052.5069109932165,583.289828069494)"><path d="M83.10209826336103,0.00001583613797606631C87.80074051385608,30.98559727992725,65.05735051429794,89.04925813255983,41.66666666666667,101.17971013912384C18.275982819035406,113.31016214568785,-32.692035846774225,89.38449901613707,-57.24200482242657,72.78272787552203C-81.79197379807891,56.180956734906985,-110.2198040244161,23.129025624696943,-105.63314718724743,1.569083295433611C-101.04649035007876,-19.99085903382972,-49.573390524571835,-42.19311579688371,-29.722063799414535,-56.576926100057946C-9.870737074257239,-70.96073640323219,-5.329213846766246,-94.16326884631114,13.474813163696348,-84.73377852361182C32.278840174158944,-75.3042882009125,78.40345601286597,-30.9855656076513,83.10209826336103,0.00001583613797606631C87.80074051385608,30.98559727992725,65.05735051429794,89.04925813255983,41.66666666666667,101.17971013912384" fill="url(#SvgjsLinearGradient1195)"/></g><g transform="matrix(1,0,0,1,912.8060622831695,716.2722666766588)"><path d="M80.72197446965872,-22.286770161711427C77.4983721997337,1.7191391062174688,39.452603260751204,38.71449824240523,19.55287343133084,56.70933087561881C-0.34685639808952473,74.7041635088324,-21.440279287002777,92.79152351902933,-38.676404506863484,85.68222563757008C-55.91252972672419,78.57292775611084,-84.47190063612413,42.95859975335618,-83.86387788783341,14.053543586863338C-83.25585513954269,-14.851512579629507,-55.48799550690484,-70.85149997491735,-35.02826801711911,-87.74811136138699C-14.568540527333383,-104.64472274785663,19.602779969751314,-98.23634826523383,38.894487050880954,-87.32612473195456C58.1861941320106,-76.4159011986753,83.94557673958374,-46.29267942964032,80.72197446965872,-22.286770161711427C77.4983721997337,1.7191391062174688,39.452603260751204,38.71449824240523,19.55287343133084,56.70933087561881" fill="url(#SvgjsLinearGradient1196)"/></g><g transform="matrix(1,0,0,1,989.4703899909948,985.9460925849579)"><path d="M55.748237744660564,-28.019583366861013C54.520354728025076,-7.036994963354662,66.93633287417784,50.89538302417719,49.60182055819637,66.89465199200536C32.26730824221491,82.89392095983354,-26.3971635474307,81.72131225829216,-48.25883615122823,67.97603044010802C-70.12050875502575,54.23074862192387,-82.66690997868238,10.340727719513668,-81.5682150645888,-15.57703891709951C-80.46952015049521,-41.49480555371269,-64.75622228709972,-80.29326279424883,-41.6666666666667,-87.53056937957103C-18.577111046233682,-94.76787596489324,40.73330125612142,-68.91937609781776,56.9691186580093,-59.00087842903275C73.20493605989718,-49.08238076024775,56.97612076129605,-49.00217177036737,55.748237744660564,-28.019583366861013C54.520354728025076,-7.036994963354662,66.93633287417784,50.89538302417719,49.60182055819637,66.89465199200536" fill="url(#SvgjsLinearGradient1197)"/></g><g transform="matrix(1,0,0,1,1455.851712920405,106.34741222406718)"><path d="M84.42533978637465,-3.6550557810899917C84.70186543447421,25.57377424831758,76.32689001228255,60.40507598719895,53.03084484850991,72.16878364870321C29.734799684737276,83.93249131020747,-32.64385359036893,84.0167803354538,-55.350931196261136,66.92719018793558C-78.05800880215335,49.83760004041736,-80.77233491736405,-4.425109754320388,-83.21162078684335,-30.368757236406136C-85.65090665632266,-56.312404718491884,-92.41719837092964,-76.59545482268956,-69.986646413137,-88.73469470457891C-47.55609445534435,-100.87393458646827,25.636359926660592,-117.38413634832371,51.371690959912534,-103.20419652774223C77.10702199316448,-89.02425670716075,84.14881413827509,-32.88388581049756,84.42533978637465,-3.6550557810899917C84.70186543447421,25.57377424831758,76.32689001228255,60.40507598719895,53.03084484850991,72.16878364870321" fill="url(#SvgjsLinearGradient1198)"/></g><g transform="matrix(1,0,0,1,1584.3807698661676,346.7333582593705)"><path d="M94.71949616422701,-12.943235486654729C98.57949791633273,6.354001566346479,71.05830127057642,41.9182922211521,49.25418137918027,58.069702111604954C27.450061487784115,74.22111200205781,-14.007304065397616,95.73446929563161,-36.105223184149885,83.96522385606241C-58.20314230290215,72.1959784164932,-84.88445501734216,15.721115531394332,-83.33333333333333,-12.545770525810287C-81.7822116493245,-40.812656583014906,-45.036410446743425,-78.10810087373332,-26.798493080096883,-85.63609248716531C-8.56057571345034,-93.16408410059731,5.841172659158612,-69.82919637315405,26.09417086654593,-57.71372020640228C46.347169073933244,-45.59824403965052,90.8594944121213,-32.24047253965594,94.71949616422701,-12.943235486654729C98.57949791633273,6.354001566346479,71.05830127057642,41.9182922211521,49.25418137918027,58.069702111604954" fill="url(#SvgjsLinearGradient1199)"/></g><g transform="matrix(1,0,0,1,1651.1466585618841,550.8175092914647)"><path d="M83.33333333333333,2.4002106602947606C80.00897969455691,25.063825804259242,54.2152106309413,54.54620171445036,34.954936416529605,63.81290721508365C15.694662202117915,73.07961271571693,-10.512884323552846,67.3650171255207,-32.2283119531368,58.00044366409446C-53.94373958272076,48.63587020266824,-91.19715309872544,31.918620587261678,-95.33762936097415,7.625466446526293C-99.47810562322286,-16.667687694209093,-82.11095079498946,-74.45943949777961,-57.07116952662909,-87.75848118031787C-32.03138825826872,-101.05752286285613,31.500307772527673,-87.19523228880536,54.901058249188075,-72.16878364870325C78.30180872584847,-57.14233500860115,86.65768697210974,-20.26340448366972,83.33333333333333,2.4002106602947606C80.00897969455691,25.063825804259242,54.2152106309413,54.54620171445036,34.954936416529605,63.81290721508365" fill="url(#SvgjsLinearGradient1200)"/></g><g transform="matrix(1,0,0,1,1481.113466309476,766.4909351668052)"><path d="M83.78576050302516,-14.771419895927007C80.7703270889707,9.589856954669393,57.44148295324541,45.13397841610656,36.84765525174711,59.17876427608744C16.25382755024882,73.22355013606833,-17.158440772772476,79.59924055102158,-39.77720570596461,69.49729526395828C-62.395970639156744,59.39534997689498,-96.89230144057899,23.758773588091824,-98.86493434740568,-1.4329074462923899C-100.83756725423237,-26.624588480676604,-77.24720149417138,-67.3934593788139,-51.61300314692479,-81.652790942347C-25.978804799678198,-95.91212250588009,32.37379512774888,-98.1357920018943,54.940255736073865,-86.98889682749098C77.50671634439885,-75.84200165308765,86.80119391707962,-39.13269674652341,83.78576050302516,-14.771419895927007C80.7703270889707,9.589856954669393,57.44148295324541,45.13397841610656,36.84765525174711,59.17876427608744" fill="url(#SvgjsLinearGradient1201)"/></g><g transform="matrix(1,0,0,1,1448.0448937886786,931.6312388541621)"><path d="M83.33333333333333,-5.772928820238949C85.36819807743446,19.54714190548789,63.09612133869169,87.46724400055749,42.26278800535836,101.34211810867544C21.42945467202503,115.21699221679339,-20.733979776884695,95.64777962056894,-41.66666666666664,77.47631582846876C-62.59935355644859,59.30485203636857,-82.9982078815093,16.867243791909093,-83.33333333333333,-7.686664643925692C-83.66845878515736,-32.24057307976048,-62.575241523291595,-62.69852785291329,-43.677419377610775,-69.84713478653994C-24.779597231929955,-76.99574172016659,8.885140755594232,-61.257340573402445,30.053599540751584,-50.57830624568561C51.22205832590893,-39.899271917968775,81.2984685892322,-31.09299954596579,83.33333333333333,-5.772928820238949C85.36819807743446,19.54714190548789,63.09612133869169,87.46724400055749,42.26278800535836,101.34211810867544" fill="url(#SvgjsLinearGradient1202)"/></g></svg>