<svg width="284" height="259" viewBox="0 0 284 259" fill="none" xmlns="http://www.w3.org/2000/svg">
<path d="M149.205 158.576L199.088 208.459L149.205 258.341L99.3224 208.459L149.205 158.576Z" fill="#6841F5"/>
<path d="M245.012 0.853027L245.012 258.341L206.213 258.341L206.213 0.853026L245.012 0.853027Z" fill="#6841F5"/>
<circle cx="245.012" cy="78.4522" r="38.7996" fill="url(#paint0_linear_1196_4182)"/>
<circle cx="49.9409" cy="208.96" r="49.3813" fill="#6841F5"/>
<circle cx="49.9412" cy="208.459" r="38.7996" fill="url(#paint1_linear_1196_4182)"/>
<path fill-rule="evenodd" clip-rule="evenodd" d="M95.0342 103.584C95.0342 132.317 118.327 155.61 147.061 155.61C175.794 155.61 199.088 132.317 199.088 103.584L95.0342 103.584Z" fill="url(#paint2_linear_1196_4182)"/>
<path fill-rule="evenodd" clip-rule="evenodd" d="M106.365 110.418C106.365 131.603 124.585 148.776 147.061 148.776C169.537 148.776 187.757 131.603 187.757 110.418H106.365Z" fill="url(#paint3_linear_1196_4182)"/>
<path d="M149.206 155.611L149.206 212.928L91.8884 212.928L91.8885 155.611L149.206 155.611Z" fill="#6841F5"/>
<path d="M142.182 162.635L142.182 205.904L98.9126 205.904L98.9126 162.635L142.182 162.635Z" fill="url(#paint4_linear_1196_4182)"/>
<defs>
<linearGradient id="paint0_linear_1196_4182" x1="206.213" y1="78.4522" x2="283.812" y2="78.4522" gradientUnits="userSpaceOnUse">
<stop stop-color="#C4C4C4"/>
<stop offset="1" stop-color="#6841F5"/>
</linearGradient>
<linearGradient id="paint1_linear_1196_4182" x1="11.1416" y1="208.459" x2="88.7408" y2="208.459" gradientUnits="userSpaceOnUse">
<stop stop-color="#C4C4C4"/>
<stop offset="1" stop-color="#6841F5"/>
</linearGradient>
<linearGradient id="paint2_linear_1196_4182" x1="147.061" y1="103.584" x2="147.061" y2="155.61" gradientUnits="userSpaceOnUse">
<stop stop-color="#6841F5"/>
<stop offset="1" stop-color="#6841F5"/>
</linearGradient>
<linearGradient id="paint3_linear_1196_4182" x1="147.061" y1="110.418" x2="147.061" y2="148.776" gradientUnits="userSpaceOnUse">
<stop stop-color="#C4C4C4"/>
<stop offset="1" stop-color="#6841F5"/>
</linearGradient>
<linearGradient id="paint4_linear_1196_4182" x1="142.182" y1="184.27" x2="98.9126" y2="184.27" gradientUnits="userSpaceOnUse">
<stop stop-color="#C4C4C4"/>
<stop offset="1" stop-color="#5A45FF"/>
</linearGradient>
</defs>
</svg>
