<svg id="canvas" height="auto" xmlns="http://www.w3.org/2000/svg" version="1.1" xmlns:xlink="http://www.w3.org/1999/xlink" xmlns:svgjs="http://svgjs.dev/svgjs" viewBox="0 0 480 240" width="auto" style="width: auto; height: auto;"><rect width="480" height="240" fill="transparent"/><mask id="mask" mask-type="alpha" maskUnits="userSpaceOnUse"><rect transform="translate(0, 0)" width="480" height="240" fill="white"/></mask><svg><path transform="translate(60, 60) translate(30,30) rotate(180) translate(-30,-30)" fill="#0096c7" fill-rule="evenodd" d="M5.072.5H.83L.5.83v4.242L5.072.5zM.5 19.214v-4.242L14.972.5h4.242L.5 19.214zm0 14.142v-4.242L29.114.5h4.242L.5 33.356zM.5 47.5v-4.243L43.256.5H47.5L.5 47.499zM2.64 59.5H.5v-2.102L57.398.5H59.5v2.14L2.64 59.5zm14.143 0H12.54L59.5 12.54v4.243L16.783 59.5zm14.142 0h-4.242L59.5 26.683v4.242L30.925 59.5zm14.142 0h-4.242L59.5 40.825v4.242L45.067 59.5zm14.143 0h-4.243l4.533-4.533v4.243l-.29.29z" clip-rule="evenodd"/></svg></svg>