<svg id="canvas" height="auto" xmlns="http://www.w3.org/2000/svg" version="1.1" xmlns:xlink="http://www.w3.org/1999/xlink" xmlns:svgjs="http://svgjs.dev/svgjs" viewBox="0 0 480 240" width="auto" style="width: auto; height: auto;"><rect width="480" height="240" fill="transparent"/><mask id="mask" mask-type="alpha" maskUnits="userSpaceOnUse"><rect transform="translate(0, 0)" width="480" height="240" fill="white"/></mask><svg><path transform="translate(120, 180) translate(30,30) rotate(0) translate(-30,-30)" fill="#383838" d="M28.074 29.726l-1.358 28.927 29.47-9.778-28.112-19.149z"/><path transform="translate(120, 180) translate(30,30) rotate(0) translate(-30,-30)" fill="#ffdb69" d="M51.84 42.628L38.94 32.306l6.518-19.42 11.951 1.766 1.902 17.654-7.47 10.322z"/><path transform="translate(120, 180) translate(30,30) rotate(0) translate(-30,-30)" fill="#fa9ad0" d="M44.513 36.76l7.327 5.863L59.31 32.3l-.789-7.323A6560.396 6560.396 0 0044.513 36.76z"/><path transform="translate(120, 180) translate(30,30) rotate(0) translate(-30,-30)" fill="#383838" d="M43.89 36.26l7.952 6.363 6.69-9.244c-4.66.923-10.846 2.144-14.642 2.882z"/><path transform="translate(120, 180) translate(30,30) rotate(0) translate(-30,-30)" fill="#fa9ad0" d="M38.531 22.121l-2.309 8.284-5.975-4.21 8.284-4.074z"/><circle cx="15.987" cy="9.495" r="8.148" transform="translate(120, 180) translate(30,30) rotate(0) translate(-30,-30)" fill="#56f3ae"/><path transform="translate(120, 180) translate(30,30) rotate(0) translate(-30,-30)" fill="#383838" d="M28.481 24.973L18.024 11.121l12.902-5.84 9.642 12.223-12.087 7.469z"/><circle cx="41.451" cy="9.495" r="2.377" transform="translate(120, 180) translate(30,30) rotate(0) translate(-30,-30)" fill="#56f3ae"/><path transform="translate(120, 180) translate(30,30) rotate(0) translate(-30,-30)" fill="#ffdb69" d="M48.581 2.429c-.588 1.947-1.82 5.975-2.037 6.519l11 .95-8.963-7.469z"/><path transform="translate(120, 180) translate(30,30) rotate(0) translate(-30,-30)" fill="#fa9ad0" d="M21.099 48.06V23.333L5.04 19.781l2.131 18.758 13.927 9.521z"/><circle cx="6.88" cy="39.743" r="6.19" transform="translate(120, 180) translate(30,30) rotate(0) translate(-30,-30)" fill="#383838"/><path transform="translate(120, 180) translate(30,30) rotate(0) translate(-30,-30)" fill="#ffdb69" d="M20.457 52.613l-7.494-5.301-4.57 8.042 12.064-2.741z"/></svg><svg><path transform="translate(360, 0) translate(30,30) rotate(0) translate(-30,-30)" fill="#56f3ae" d="M.63 24.138L3.629 3.556 20.613.56l5.195 12.988-10.19 16.186L.63 24.138z"/><path transform="translate(360, 0) translate(30,30) rotate(0) translate(-30,-30)" fill="#fa9ad0" d="M26.264 34.535l-4.04-22.777 22.424-3.2-18.384 25.977z"/><path transform="translate(360, 0) translate(30,30) rotate(0) translate(-30,-30)" fill="#fa9ad0" d="M21.243 28.207L16.5 34.245l7.259 7.259-2.516-13.296z"/><circle cx="53.369" cy="11.559" r="6" transform="translate(360, 0) translate(30,30) rotate(0) translate(-30,-30)" fill="#383838"/><circle cx="34.672" cy="4.559" r="1.972" transform="translate(360, 0) translate(30,30) rotate(0) translate(-30,-30)" fill="#edf9fe"/><path transform="translate(360, 0) translate(30,30) rotate(0) translate(-30,-30)" fill="#56f3ae" d="M32.998 52.18l-4.811-10.195 10.08-14.434L51.44 41.985 32.998 52.18z"/><path transform="translate(360, 0) translate(30,30) rotate(0) translate(-30,-30)" fill="#56f3ae" d="M59.37 42.004L41.74 22.669l2.943-3.969 14.392 13.621.293 9.683z"/><path transform="translate(360, 0) translate(30,30) rotate(0) translate(-30,-30)" fill="#56f3ae" d="M59.152 34.65L42.468 21.696l2.221-2.996 14.392 13.621.07 2.33z"/><path transform="translate(360, 0) translate(30,30) rotate(0) translate(-30,-30)" fill="#55c2ff" d="M50.615 32.403l8.754 9.6-.293-9.682-3.232-3.059a10.515 10.515 0 00-5.229 3.14zM4.007 42.035L3.82 57.822l19.053 1.62-8.34-12.657-10.525-4.75z"/><circle cx="10.667" cy="41.559" r="4.958" transform="translate(360, 0) translate(30,30) rotate(0) translate(-30,-30)" fill="#edf9fe"/><circle cx="3.12" cy="32.02" r="2.023" transform="translate(360, 0) translate(30,30) rotate(0) translate(-30,-30)" fill="#56f3ae"/><path transform="translate(360, 0) translate(30,30) rotate(0) translate(-30,-30)" fill="#fa9ad0" d="M51.659 48.562l-10.013 5.136 11.963 2.146-1.95-7.282z"/></svg><svg><circle cx="29.384" cy="9.883" r="9.344" transform="translate(420, 60) translate(30,30) rotate(270) translate(-30,-30)" fill="#fa9ad0"/><circle cx="29.617" cy="23.409" r="1.96" transform="translate(420, 60) translate(30,30) rotate(270) translate(-30,-30)" fill="#383838"/><circle cx="5.535" cy="51.131" r="2.585" transform="translate(420, 60) translate(30,30) rotate(270) translate(-30,-30)" fill="#55c2ff"/><path transform="translate(420, 60) translate(30,30) rotate(270) translate(-30,-30)" fill="#56f3ae" d="M15.135 12.757l-11.747.705-2.01 19.21 11.172 3.107 13.508-8.34-10.923-14.682z"/><path transform="translate(420, 60) translate(30,30) rotate(270) translate(-30,-30)" fill="#383838" d="M10.973 1.43l4.183 8.303L1.085 10.81l9.888-9.38z"/><path transform="translate(420, 60) translate(30,30) rotate(270) translate(-30,-30)" fill="#56f3ae" d="M1.683 45.065l4.136-15.328 21.046 2.798-4.015 18.491-21.167-5.96z"/><path transform="translate(420, 60) translate(30,30) rotate(270) translate(-30,-30)" fill="#383838" d="M39.27 22.06L27.716 30.16l13.807 2.184-2.255-10.285z"/><path transform="translate(420, 60) translate(30,30) rotate(270) translate(-30,-30)" fill="#383838" d="M47.537 28.76L42.695 8.668 58.915 10 47.537 28.76z"/><path transform="translate(420, 60) translate(30,30) rotate(270) translate(-30,-30)" fill="#fa9ad0" d="M30.634 36.326l-1.866 8.62 14.193-7.248-12.327-1.372z"/><path transform="translate(420, 60) translate(30,30) rotate(270) translate(-30,-30)" fill="#ffdb69" d="M58.915 47.031l-8.639 12.43-12.988-4.662.373-6.525 15.785-7.893 5.469 6.65z"/><path transform="translate(420, 60) translate(30,30) rotate(270) translate(-30,-30)" fill="#56f3ae" d="M56.203 28.76l-4.618 4.307 5.967 1.194-1.349-5.5z"/></svg></svg>