<svg id="canvas" height="auto" xmlns="http://www.w3.org/2000/svg" version="1.1" xmlns:xlink="http://www.w3.org/1999/xlink" xmlns:svgjs="http://svgjs.dev/svgjs" viewBox="0 0 480 240" width="auto" style="width: auto; height: auto;"><rect width="480" height="240" fill="#f9ecff"/><mask id="mask" mask-type="alpha" maskUnits="userSpaceOnUse"><rect transform="translate(0, 0)" width="480" height="240" fill="white"/></mask><svg><path transform="&#10;    translate(0, 60)&#10;    " d="M0 0h60v60H0z" fill="&#10;    #90e0ef"/></svg><svg><path transform="translate(0, 7200 translate(30,30) rotate(180) translate(-30,-30)" d="M0 60C33.1371 60 60 33.1371 60 5.24537e-06L5.24537e-06 0L0 60Z" fill="#0077b6"/></svg><svg><path transform="translate(360,0) translate(30,30) rotate(90) translate(-30,-30)" fill="#0077b6" d="M60 0v60H0V0z"/><path transform="translate(360,0) translate(30,30) rotate(90) translate(-30,-30)" fill="#03045e" d="M60 0v60H0C0 26.863 26.863 0 60 0z"/></svg><svg><path transform="&#10;    translate(420, 60)&#10;    " d="M0 0h60v60H0z" fill="&#10;    #ade8f4"/></svg></svg>