<svg id="canvas" height="auto" xmlns="http://www.w3.org/2000/svg" version="1.1" xmlns:xlink="http://www.w3.org/1999/xlink" xmlns:svgjs="http://svgjs.dev/svgjs" viewBox="0 0 480 240" width="auto" style="width: auto; height: auto;"><rect width="480" height="240" fill="transparent"/><mask id="mask" mask-type="alpha" maskUnits="userSpaceOnUse"><rect transform="translate(0, 0)" width="480" height="240" fill="white"/></mask><g name="doubleStripes" mask="url(#mask)" mix-blend-mode="multiply"><rect transform="translate(60, 120) rotate(0)" width="60" height="120" fill="none"/><path transform="translate(60, 120) rotate(0)" fill="#fa9ad0" d="M48.0004 120.462H52.0004L52.0004 0.461672L48.0004 0.461672L48.0004 120.462Z"/><path transform="translate(60, 120) rotate(0)" fill="#fa9ad0" d="M38.0004 0.461671L38.0004 120.462H42.0004L42.0004 0.461671L38.0004 0.461671Z"/><path transform="translate(60, 120) rotate(0)" fill="#fa9ad0" d="M28.0004 0.461671L32.0004 0.461671L32.0004 120.462H28.0004L28.0004 0.461671Z"/><path transform="translate(60, 120) rotate(0)" fill="#fa9ad0" d="M18.0004 0.46167L18.0004 120.462H22.0004L22.0004 0.461671L18.0004 0.46167Z"/><path transform="translate(60, 120) rotate(0)" fill="#fa9ad0" d="M8.00037 0.46167L8.00037 120.462H12.0004L12.0004 0.46167L8.00037 0.46167Z"/></g></svg>