<svg id="visual" viewBox="0 0 900 600" width="900" height="600" xmlns="http://www.w3.org/2000/svg" xmlns:xlink="http://www.w3.org/1999/xlink" version="1.1"><rect x="0" y="0" width="900" height="600" fill="#d9d9e8"></rect><path d="M0 498L21.5 497.2C43 496.3 86 494.7 128.8 484.7C171.7 474.7 214.3 456.3 257.2 458.5C300 460.7 343 483.3 385.8 473.8C428.7 464.3 471.3 422.7 514.2 406C557 389.3 600 397.7 642.8 412.5C685.7 427.3 728.3 448.7 771.2 446.7C814 444.7 857 419.3 878.5 406.7L900 394L900 601L878.5 601C857 601 814 601 771.2 601C728.3 601 685.7 601 642.8 601C600 601 557 601 514.2 601C471.3 601 428.7 601 385.8 601C343 601 300 601 257.2 601C214.3 601 171.7 601 128.8 601C86 601 43 601 21.5 601L0 601Z" fill="#0066FF" stroke-linecap="round" stroke-linejoin="miter"></path></svg>